<?xml version="1.0" encoding="UTF-8" standalone="no"?>
<svg
   xmlns:dc="http://purl.org/dc/elements/1.1/"
   xmlns:cc="http://creativecommons.org/ns#"
   xmlns:rdf="http://www.w3.org/1999/02/22-rdf-syntax-ns#"
   xmlns:svg="http://www.w3.org/2000/svg"
   xmlns="http://www.w3.org/2000/svg"
   xmlns:sodipodi="http://sodipodi.sourceforge.net/DTD/sodipodi-0.dtd"
   xmlns:inkscape="http://www.inkscape.org/namespaces/inkscape"
   aria-hidden="true"
   focusable="false"
   width="24"
   height="24"
   preserveAspectRatio="xMidYMid meet"
   viewBox="0 0 24 24"
   version="1.1"
   id="svg8"
   sodipodi:docname="audio_off.svg"
   inkscape:export-filename="C:\Users\rohan\workspace\NokuApp-cordova\www\img\audio_on.png"
   inkscape:export-xdpi="768"
   inkscape:export-ydpi="768"
   inkscape:version="0.92.4 (5da689c313, 2019-01-14)">
  <metadata
     id="metadata14">
    <rdf:RDF>
      <cc:Work
         rdf:about="">
        <dc:format>image/svg+xml</dc:format>
        <dc:type
           rdf:resource="http://purl.org/dc/dcmitype/StillImage" />
        <dc:title></dc:title>
      </cc:Work>
    </rdf:RDF>
  </metadata>
  <defs
     id="defs12" />
  <sodipodi:namedview
     pagecolor="#ffffff"
     bordercolor="#666666"
     borderopacity="1"
     objecttolerance="10000"
     gridtolerance="10000"
     guidetolerance="10000"
     inkscape:pageopacity="0"
     inkscape:pageshadow="2"
     inkscape:window-width="1920"
     inkscape:window-height="1001"
     id="namedview10"
     showgrid="true"
     inkscape:zoom="14.339119"
     inkscape:cx="5.457894"
     inkscape:cy="0.28706275"
     inkscape:window-x="-9"
     inkscape:window-y="-9"
     inkscape:window-maximized="1"
     inkscape:current-layer="svg8"
     inkscape:snap-perpendicular="true"
     inkscape:snap-tangential="true">
    <inkscape:grid
       type="xygrid"
       id="grid4595"
       empspacing="8"
       empcolor="#ff3f00"
       empopacity="0.25098039" />
  </sodipodi:namedview>
  <g
     id="g821"
     style="fill:#626262"
     transform="translate(5,3.99)">
    <path
       id="path817"
       d="M 6.717,3.55 A 0.5,0.5 0 0 1 7,4 v 8 A 0.5,0.5 0 0 1 6.188,12.39 L 3.825,10.5 H 1.5 A 0.5,0.5 0 0 1 1,10 V 6 A 0.5,0.5 0 0 1 1.5,5.5 H 3.825 L 6.188,3.61 A 0.5,0.5 0 0 1 6.717,3.55 Z m 7.137,2.096 a 0.5,0.5 0 0 1 0,0.708 l -4,4 A 0.5006316,0.5006316 0 0 1 9.146,9.646 l 4,-4 a 0.5,0.5 0 0 1 0.708,0 z"
       inkscape:connector-curvature="0"
       style="fill-rule:evenodd" />
    <path
       id="path819"
       d="m 9.146,5.646 a 0.5,0.5 0 0 0 0,0.708 l 4,4 a 0.5006316,0.5006316 0 0 0 0.708,-0.708 l -4,-4 a 0.5,0.5 0 0 0 -0.708,0 z"
       inkscape:connector-curvature="0"
       style="fill-rule:evenodd" />
  </g>
</svg>
