<?xml version="1.0" encoding="UTF-8" standalone="no"?>
<svg
   xmlns:dc="http://purl.org/dc/elements/1.1/"
   xmlns:cc="http://creativecommons.org/ns#"
   xmlns:rdf="http://www.w3.org/1999/02/22-rdf-syntax-ns#"
   xmlns:svg="http://www.w3.org/2000/svg"
   xmlns="http://www.w3.org/2000/svg"
   xmlns:sodipodi="http://sodipodi.sourceforge.net/DTD/sodipodi-0.dtd"
   xmlns:inkscape="http://www.inkscape.org/namespaces/inkscape"
   aria-hidden="true"
   focusable="false"
   width="24"
   height="24"
   preserveAspectRatio="xMidYMid meet"
   viewBox="0 0 24 24"
   version="1.1"
   id="svg8"
   sodipodi:docname="camera.svg"
   inkscape:export-filename="C:\Users\rohan\workspace\Noku\NokuApp-cordova\www\img\camera.png"
   inkscape:export-xdpi="768"
   inkscape:export-ydpi="768"
   inkscape:version="0.92.4 (5da689c313, 2019-01-14)">
  <metadata
     id="metadata14">
    <rdf:RDF>
      <cc:Work
         rdf:about="">
        <dc:format>image/svg+xml</dc:format>
        <dc:type
           rdf:resource="http://purl.org/dc/dcmitype/StillImage" />
        <dc:title></dc:title>
      </cc:Work>
    </rdf:RDF>
  </metadata>
  <defs
     id="defs12" />
  <sodipodi:namedview
     pagecolor="#ffffff"
     bordercolor="#666666"
     borderopacity="1"
     objecttolerance="10000"
     gridtolerance="10000"
     guidetolerance="10000"
     inkscape:pageopacity="0"
     inkscape:pageshadow="2"
     inkscape:window-width="1920"
     inkscape:window-height="1001"
     id="namedview10"
     showgrid="true"
     inkscape:zoom="11.888586"
     inkscape:cx="26.944009"
     inkscape:cy="-0.67824653"
     inkscape:window-x="-9"
     inkscape:window-y="-9"
     inkscape:window-maximized="1"
     inkscape:current-layer="svg8"
     inkscape:snap-perpendicular="true"
     inkscape:snap-tangential="true">
    <inkscape:grid
       type="xygrid"
       id="grid4595"
       empspacing="8"
       empcolor="#ff3f00"
       empopacity="0.25098039" />
  </sodipodi:namedview>
  <g
     id="g821"
     style="fill:#626262"
     transform="translate(4,4)">
    <path
       id="path815"
       d="M 15,12 V 6 A 1,1 0 0 0 14,5 H 12.828 A 3,3 0 0 1 10.708,4.121 L 9.878,3.293 A 1,1 0 0 0 9.173,3 H 6.828 A 1,1 0 0 0 6.121,3.293 L 5.293,4.121 A 3,3 0 0 1 3.172,5 H 2 A 1,1 0 0 0 1,6 v 6 a 1,1 0 0 0 1,1 h 12 a 1,1 0 0 0 1,-1 z M 2,4 A 2,2 0 0 0 0,6 v 6 a 2,2 0 0 0 2,2 h 12 a 2,2 0 0 0 2,-2 V 6 A 2,2 0 0 0 14,4 H 12.828 A 2,2 0 0 1 11.414,3.414 L 10.586,2.586 A 2,2 0 0 0 9.172,2 H 6.828 A 2,2 0 0 0 5.414,2.586 L 4.586,3.414 A 2,2 0 0 1 3.172,4 Z"
       inkscape:connector-curvature="0"
       style="fill-rule:evenodd" />
    <path
       id="path817"
       d="m 8,11 a 2.5,2.5 0 1 0 0,-5 2.5,2.5 0 0 0 0,5 z m 0,1 a 3.5,3.5 0 1 0 0,-7 3.5,3.5 0 0 0 0,7 z"
       inkscape:connector-curvature="0"
       style="fill-rule:evenodd" />
    <path
       id="path819"
       d="m 3,6.5 a 0.5,0.5 0 1 1 -1,0 0.5,0.5 0 0 1 1,0 z"
       inkscape:connector-curvature="0" />
  </g>
</svg>
