<?xml version="1.0" encoding="UTF-8" standalone="no"?>
<svg
   xmlns:dc="http://purl.org/dc/elements/1.1/"
   xmlns:cc="http://creativecommons.org/ns#"
   xmlns:rdf="http://www.w3.org/1999/02/22-rdf-syntax-ns#"
   xmlns:svg="http://www.w3.org/2000/svg"
   xmlns="http://www.w3.org/2000/svg"
   xmlns:sodipodi="http://sodipodi.sourceforge.net/DTD/sodipodi-0.dtd"
   xmlns:inkscape="http://www.inkscape.org/namespaces/inkscape"
   aria-hidden="true"
   focusable="false"
   width="24"
   height="24"
   preserveAspectRatio="xMidYMid meet"
   viewBox="0 0 24 24"
   version="1.1"
   id="svg8"
   sodipodi:docname="camera_video.svg"
   inkscape:export-filename="C:\Users\rohan\workspace\Noku\NokuApp-cordova\www\img\camera_video.png"
   inkscape:export-xdpi="768"
   inkscape:export-ydpi="768"
   inkscape:version="0.92.4 (5da689c313, 2019-01-14)">
  <metadata
     id="metadata14">
    <rdf:RDF>
      <cc:Work
         rdf:about="">
        <dc:format>image/svg+xml</dc:format>
        <dc:type
           rdf:resource="http://purl.org/dc/dcmitype/StillImage" />
        <dc:title></dc:title>
      </cc:Work>
    </rdf:RDF>
  </metadata>
  <defs
     id="defs12" />
  <sodipodi:namedview
     pagecolor="#ffffff"
     bordercolor="#666666"
     borderopacity="1"
     objecttolerance="10000"
     gridtolerance="10000"
     guidetolerance="10000"
     inkscape:pageopacity="0"
     inkscape:pageshadow="2"
     inkscape:window-width="1920"
     inkscape:window-height="1001"
     id="namedview10"
     showgrid="true"
     inkscape:zoom="11.888586"
     inkscape:cx="26.944009"
     inkscape:cy="-0.67824653"
     inkscape:window-x="-9"
     inkscape:window-y="-9"
     inkscape:window-maximized="1"
     inkscape:current-layer="svg8"
     inkscape:snap-perpendicular="true"
     inkscape:snap-tangential="true">
    <inkscape:grid
       type="xygrid"
       id="grid4595"
       empspacing="8"
       empcolor="#ff3f00"
       empopacity="0.25098039" />
  </sodipodi:namedview>
  <g
     id="g841"
     style="fill:#626262"
     transform="translate(4.25,4)">
    <path
       id="path835"
       d="M 2.667,7 C 2.022,7 1.5,7.522 1.5,8.167 v 5.666 C 1.5,14.478 2.022,15 2.667,15 H 9.333 C 9.978,15 10.5,14.478 10.5,13.833 V 8.167 C 10.5,7.522 9.978,7 9.333,7 Z M 0.5,8.167 C 0.5,6.97 1.47,6 2.667,6 H 9.333 C 10.53,6 11.5,6.97 11.5,8.167 v 5.666 C 11.5,15.03 10.53,16 9.333,16 H 2.667 A 2.167,2.167 0 0 1 0.5,13.833 Z"
       inkscape:connector-curvature="0"
       style="fill-rule:evenodd" />
    <path
       id="path837"
       d="M 11.25,9.15 14.018,7.545 A 0.318,0.318 0 0 1 14.5,7.808 v 6.384 c 0,0.228 -0.26,0.393 -0.482,0.264 l -2.767,-1.605 -0.502,0.865 2.767,1.605 C 14.375,15.819 15.5,15.226 15.5,14.192 V 7.808 C 15.5,6.775 14.375,6.182 13.516,6.68 L 10.75,8.285 11.252,9.15 Z M 3,5 A 2,2 0 1 0 3,1 2,2 0 0 0 3,5 Z M 3,6 A 3,3 0 1 0 3,0 3,3 0 0 0 3,6 Z"
       inkscape:connector-curvature="0"
       style="fill-rule:evenodd" />
    <path
       id="path839"
       d="M 9,5 A 2,2 0 1 0 9,1 2,2 0 0 0 9,5 Z M 9,6 A 3,3 0 1 0 9,0 3,3 0 0 0 9,6 Z"
       inkscape:connector-curvature="0"
       style="fill-rule:evenodd" />
  </g>
</svg>
