<?xml version="1.0" encoding="UTF-8" standalone="no"?>
<svg
   xmlns:dc="http://purl.org/dc/elements/1.1/"
   xmlns:cc="http://creativecommons.org/ns#"
   xmlns:rdf="http://www.w3.org/1999/02/22-rdf-syntax-ns#"
   xmlns:svg="http://www.w3.org/2000/svg"
   xmlns="http://www.w3.org/2000/svg"
   xmlns:sodipodi="http://sodipodi.sourceforge.net/DTD/sodipodi-0.dtd"
   xmlns:inkscape="http://www.inkscape.org/namespaces/inkscape"
   aria-hidden="true"
   focusable="false"
   width="24"
   height="24"
   preserveAspectRatio="xMidYMid meet"
   viewBox="0 0 24 24"
   version="1.1"
   id="svg8"
   sodipodi:docname="comment.svg"
   inkscape:export-filename="C:\Users\rohan\workspace\NokuApp-cordova\www\img\comment.png"
   inkscape:export-xdpi="768"
   inkscape:export-ydpi="768"
   inkscape:version="0.92.4 (5da689c313, 2019-01-14)">
  <metadata
     id="metadata14">
    <rdf:RDF>
      <cc:Work
         rdf:about="">
        <dc:format>image/svg+xml</dc:format>
        <dc:type
           rdf:resource="http://purl.org/dc/dcmitype/StillImage" />
        <dc:title></dc:title>
      </cc:Work>
    </rdf:RDF>
  </metadata>
  <defs
     id="defs12" />
  <sodipodi:namedview
     pagecolor="#ffffff"
     bordercolor="#666666"
     borderopacity="1"
     objecttolerance="10000"
     gridtolerance="10000"
     guidetolerance="10000"
     inkscape:pageopacity="0"
     inkscape:pageshadow="2"
     inkscape:window-width="1920"
     inkscape:window-height="1001"
     id="namedview10"
     showgrid="true"
     inkscape:zoom="20.278577"
     inkscape:cx="18.5521"
     inkscape:cy="13.058816"
     inkscape:window-x="-9"
     inkscape:window-y="-9"
     inkscape:window-maximized="1"
     inkscape:current-layer="svg8"
     inkscape:snap-perpendicular="true"
     inkscape:snap-tangential="true">
    <inkscape:grid
       type="xygrid"
       id="grid4595"
       empspacing="8"
       empcolor="#ff3f00"
       empopacity="0.25098039" />
  </sodipodi:namedview>
  <g
     id="g885"
     style="fill:#626262"
     transform="translate(4,3.5687178)">
    <path
       id="path881"
       d="m 2.678,11.894 a 1,1 0 0 1 0.287,0.801 10.97,10.97 0 0 1 -0.398,2 C 3.962,14.372 4.814,13.998 5.201,13.802 A 1,1 0 0 1 5.911,13.728 8.06,8.06 0 0 0 8,14 c 3.996,0 7,-2.807 7,-6 C 15,4.808 11.996,2 8,2 4.004,2 1,4.808 1,8 1,9.468 1.617,10.83 2.678,11.894 Z M 2.185,15.799 A 21.682,21.682 0 0 1 1.472,15.928 C 1.272,15.96 1.12,15.752 1.199,15.566 a 9.68,9.68 0 0 0 0.244,-0.637 l 0.003,-0.01 C 1.694,14.199 1.896,13.371 1.97,12.6 0.743,11.37 0,9.76 0,8 0,4.134 3.582,1 8,1 c 4.418,0 8,3.134 8,7 0,3.866 -3.582,7 -8,7 A 9.06,9.06 0 0 1 5.653,14.694 c -0.52,0.263 -1.639,0.742 -3.468,1.105 z"
       inkscape:connector-curvature="0"
       style="fill-rule:evenodd" />
    <path
       id="path883"
       d="M 4,5.5 A 0.5,0.5 0 0 1 4.5,5 h 7 a 0.5,0.5 0 0 1 0,1 h -7 A 0.5,0.5 0 0 1 4,5.5 Z M 4,8 A 0.5,0.5 0 0 1 4.5,7.5 h 7 a 0.5,0.5 0 0 1 0,1 h -7 A 0.5,0.5 0 0 1 4,8 Z m 0,2.5 A 0.5,0.5 0 0 1 4.5,10 h 4 a 0.5,0.5 0 0 1 0,1 h -4 A 0.5,0.5 0 0 1 4,10.5 Z"
       inkscape:connector-curvature="0"
       style="fill-rule:evenodd" />
  </g>
</svg>
