<?xml version="1.0" encoding="UTF-8" standalone="no"?>
<svg
   xmlns:dc="http://purl.org/dc/elements/1.1/"
   xmlns:cc="http://creativecommons.org/ns#"
   xmlns:rdf="http://www.w3.org/1999/02/22-rdf-syntax-ns#"
   xmlns:svg="http://www.w3.org/2000/svg"
   xmlns="http://www.w3.org/2000/svg"
   xmlns:sodipodi="http://sodipodi.sourceforge.net/DTD/sodipodi-0.dtd"
   xmlns:inkscape="http://www.inkscape.org/namespaces/inkscape"
   aria-hidden="true"
   focusable="false"
   width="24"
   height="24"
   preserveAspectRatio="xMidYMid meet"
   viewBox="0 0 24 24"
   version="1.1"
   id="svg8"
   sodipodi:docname="featured.svg"
   inkscape:export-filename="C:\Users\rohan\workspace\NokuApp-cordova\www\img\featured.png"
   inkscape:export-xdpi="768"
   inkscape:export-ydpi="768"
   inkscape:version="0.92.4 (5da689c313, 2019-01-14)">
  <metadata
     id="metadata14">
    <rdf:RDF>
      <cc:Work
         rdf:about="">
        <dc:format>image/svg+xml</dc:format>
        <dc:type
           rdf:resource="http://purl.org/dc/dcmitype/StillImage" />
        <dc:title></dc:title>
      </cc:Work>
    </rdf:RDF>
  </metadata>
  <defs
     id="defs12" />
  <sodipodi:namedview
     pagecolor="#ffffff"
     bordercolor="#666666"
     borderopacity="1"
     objecttolerance="10000"
     gridtolerance="10000"
     guidetolerance="10000"
     inkscape:pageopacity="0"
     inkscape:pageshadow="2"
     inkscape:window-width="1920"
     inkscape:window-height="1001"
     id="namedview10"
     showgrid="true"
     inkscape:zoom="20.278577"
     inkscape:cx="18.5521"
     inkscape:cy="13.058816"
     inkscape:window-x="-9"
     inkscape:window-y="-9"
     inkscape:window-maximized="1"
     inkscape:current-layer="svg8"
     inkscape:snap-perpendicular="true"
     inkscape:snap-tangential="true">
    <inkscape:grid
       type="xygrid"
       id="grid4595"
       empspacing="8"
       empcolor="#ff3f00"
       empopacity="0.25098039" />
  </sodipodi:namedview>
  <g
     id="g821"
     style="fill:#626262"
     transform="translate(4,4)">
    <path
       id="path819"
       d="m 9.05,0.435 c -0.58,-0.58 -1.52,-0.58 -2.1,0 L 4.047,3.339 8,7.293 11.954,3.339 9.049,0.435 Z M 12.66,4.046 8.708,8 l 3.954,3.954 2.904,-2.905 c 0.58,-0.58 0.58,-1.519 0,-2.098 L 12.662,4.046 Z M 11.954,12.661 8,8.707 4.046,12.661 6.951,15.565 c 0.58,0.58 1.519,0.58 2.098,0 z M 3.339,11.954 7.293,8 3.339,4.046 0.435,6.951 c -0.58,0.58 -0.58,1.519 0,2.098 z"
       inkscape:connector-curvature="0"
       style="fill-rule:evenodd" />
  </g>
</svg>
