<?xml version="1.0" encoding="UTF-8" standalone="no"?>
<svg
   xmlns:dc="http://purl.org/dc/elements/1.1/"
   xmlns:cc="http://creativecommons.org/ns#"
   xmlns:rdf="http://www.w3.org/1999/02/22-rdf-syntax-ns#"
   xmlns:svg="http://www.w3.org/2000/svg"
   xmlns="http://www.w3.org/2000/svg"
   xmlns:sodipodi="http://sodipodi.sourceforge.net/DTD/sodipodi-0.dtd"
   xmlns:inkscape="http://www.inkscape.org/namespaces/inkscape"
   aria-hidden="true"
   focusable="false"
   width="24"
   height="24"
   preserveAspectRatio="xMidYMid meet"
   viewBox="0 0 24 24"
   version="1.1"
   id="svg8"
   sodipodi:docname="flag.svg"
   inkscape:export-filename="C:\Users\rohan\workspace\Noku\NokuApp-cordova\www\img\flag.png"
   inkscape:export-xdpi="768"
   inkscape:export-ydpi="768"
   inkscape:version="0.92.4 (5da689c313, 2019-01-14)">
  <metadata
     id="metadata14">
    <rdf:RDF>
      <cc:Work
         rdf:about="">
        <dc:format>image/svg+xml</dc:format>
        <dc:type
           rdf:resource="http://purl.org/dc/dcmitype/StillImage" />
        <dc:title></dc:title>
      </cc:Work>
    </rdf:RDF>
  </metadata>
  <defs
     id="defs12" />
  <sodipodi:namedview
     pagecolor="#ffffff"
     bordercolor="#666666"
     borderopacity="1"
     objecttolerance="10000"
     gridtolerance="10000"
     guidetolerance="10000"
     inkscape:pageopacity="0"
     inkscape:pageshadow="2"
     inkscape:window-width="1920"
     inkscape:window-height="1001"
     id="namedview10"
     showgrid="true"
     inkscape:zoom="16.813"
     inkscape:cx="-3.9020178"
     inkscape:cy="2.6933652"
     inkscape:window-x="-9"
     inkscape:window-y="-9"
     inkscape:window-maximized="1"
     inkscape:current-layer="svg8"
     inkscape:snap-perpendicular="true"
     inkscape:snap-tangential="true">
    <inkscape:grid
       type="xygrid"
       id="grid4595"
       empspacing="8"
       empcolor="#ff3f00"
       empopacity="0.25098039" />
  </sodipodi:namedview>
  <g
     id="g836"
     style="fill:#626262"
     transform="translate(4,4)">
    <path
       id="path832"
       d="M 3.5,1 A 0.5,0.5 0 0 1 4,1.5 v 13 a 0.5,0.5 0 0 1 -1,0 V 1.5 A 0.5,0.5 0 0 1 3.5,1 Z"
       inkscape:connector-curvature="0"
       style="fill-rule:evenodd" />
    <path
       id="path834"
       d="M 3.762,2.558 C 4.735,1.909 5.348,1.5 6.5,1.5 7.153,1.5 7.639,1.825 7.995,2.062 L 8.027,2.084 C 8.418,2.344 8.673,2.5 9,2.5 9.168,2.5 9.356,2.458 9.587,2.374 A 8.89,8.89 0 0 0 10.18,2.124 C 10.238,2.097 10.297,2.071 10.36,2.044 10.93,1.789 11.638,1.5 12.5,1.5 A 0.5,0.5 0 0 1 13,2 v 6 a 0.5,0.5 0 0 1 -0.5,0.5 c -0.638,0 -1.18,0.21 -1.734,0.457 l -0.159,0.07 c -0.22,0.1 -0.453,0.205 -0.678,0.287 A 2.719,2.719 0 0 1 9,9.5 C 8.347,9.5 7.861,9.175 7.505,8.938 L 7.473,8.916 C 7.082,8.656 6.827,8.5 6.5,8.5 5.667,8.5 5.282,8.746 4.277,9.416 A 0.50034713,0.50034713 0 1 1 3.762,8.558 C 4.735,7.909 5.348,7.5 6.5,7.5 7.153,7.5 7.639,7.825 7.995,8.062 L 8.027,8.084 C 8.418,8.344 8.673,8.5 9,8.5 9.168,8.5 9.356,8.458 9.587,8.374 9.774,8.306 9.963,8.221 10.18,8.124 10.238,8.097 10.297,8.071 10.36,8.044 10.816,7.84 11.36,7.614 12,7.532 V 2.543 c -0.433,0.074 -0.83,0.234 -1.234,0.414 l -0.159,0.07 c -0.22,0.1 -0.453,0.205 -0.678,0.287 A 2.719,2.719 0 0 1 9,3.5 C 8.347,3.5 7.861,3.175 7.505,2.938 L 7.473,2.916 C 7.082,2.656 6.827,2.5 6.5,2.5 5.667,2.5 5.282,2.746 4.277,3.416 A 0.5,0.5 0 0 1 3.723,2.584 l 0.04,-0.026 z"
       inkscape:connector-curvature="0"
       style="fill-rule:evenodd" />
  </g>
</svg>
