<?xml version="1.0" encoding="UTF-8" standalone="no"?>
<svg
   xmlns:dc="http://purl.org/dc/elements/1.1/"
   xmlns:cc="http://creativecommons.org/ns#"
   xmlns:rdf="http://www.w3.org/1999/02/22-rdf-syntax-ns#"
   xmlns:svg="http://www.w3.org/2000/svg"
   xmlns="http://www.w3.org/2000/svg"
   xmlns:sodipodi="http://sodipodi.sourceforge.net/DTD/sodipodi-0.dtd"
   xmlns:inkscape="http://www.inkscape.org/namespaces/inkscape"
   aria-hidden="true"
   focusable="false"
   width="24"
   height="24"
   preserveAspectRatio="xMidYMid meet"
   viewBox="0 0 24 24"
   version="1.1"
   id="svg8"
   sodipodi:docname="image.svg"
   inkscape:export-filename="C:\Users\rohan\workspace\NokuApp-cordova\www\img\menu.png"
   inkscape:export-xdpi="768"
   inkscape:export-ydpi="768"
   inkscape:version="0.92.4 (5da689c313, 2019-01-14)">
  <metadata
     id="metadata14">
    <rdf:RDF>
      <cc:Work
         rdf:about="">
        <dc:format>image/svg+xml</dc:format>
        <dc:type
           rdf:resource="http://purl.org/dc/dcmitype/StillImage" />
        <dc:title></dc:title>
      </cc:Work>
    </rdf:RDF>
  </metadata>
  <defs
     id="defs12" />
  <sodipodi:namedview
     pagecolor="#ffffff"
     bordercolor="#666666"
     borderopacity="1"
     objecttolerance="10000"
     gridtolerance="10000"
     guidetolerance="10000"
     inkscape:pageopacity="0"
     inkscape:pageshadow="2"
     inkscape:window-width="958"
     inkscape:window-height="991"
     id="namedview10"
     showgrid="true"
     inkscape:zoom="17.926261"
     inkscape:cx="11.990277"
     inkscape:cy="9.438455"
     inkscape:window-x="-8"
     inkscape:window-y="0"
     inkscape:window-maximized="0"
     inkscape:current-layer="svg8"
     inkscape:snap-perpendicular="true"
     inkscape:snap-tangential="true">
    <inkscape:grid
       type="xygrid"
       id="grid4595"
       empspacing="8"
       empcolor="#ff3f00"
       empopacity="0.25098039" />
  </sodipodi:namedview>
  <g
     id="g835"
     style="fill:#626262"
     transform="translate(4,4)">
    <path
       id="path829"
       d="M 14.5,3 H 1.5 A 0.5,0.5 0 0 0 1,3.5 v 9 A 0.5,0.5 0 0 0 1.5,13 h 13 A 0.5,0.5 0 0 0 15,12.5 v -9 A 0.5,0.5 0 0 0 14.5,3 Z M 1.5,2 A 1.5,1.5 0 0 0 0,3.5 v 9 A 1.5,1.5 0 0 0 1.5,14 h 13 A 1.5,1.5 0 0 0 16,12.5 v -9 A 1.5,1.5 0 0 0 14.5,2 Z"
       inkscape:connector-curvature="0"
       style="fill-rule:evenodd" />
    <path
       id="path831"
       d="M 10.648,7.646 A 0.5,0.5 0 0 1 11.225,7.553 L 15.002,9.5 V 13 h -14 V 12 L 3.648,9.646 a 0.5,0.5 0 0 1 0.63,-0.062 l 2.66,1.773 3.71,-3.71 z"
       inkscape:connector-curvature="0" />
    <path
       id="path833"
       d="m 4.502,7 a 1.5,1.5 0 1 0 0,-3 1.5,1.5 0 0 0 0,3 z"
       inkscape:connector-curvature="0"
       style="fill-rule:evenodd" />
  </g>
</svg>
