<?xml version="1.0" encoding="UTF-8" standalone="no"?>
<svg
   xmlns:dc="http://purl.org/dc/elements/1.1/"
   xmlns:cc="http://creativecommons.org/ns#"
   xmlns:rdf="http://www.w3.org/1999/02/22-rdf-syntax-ns#"
   xmlns:svg="http://www.w3.org/2000/svg"
   xmlns="http://www.w3.org/2000/svg"
   xmlns:sodipodi="http://sodipodi.sourceforge.net/DTD/sodipodi-0.dtd"
   xmlns:inkscape="http://www.inkscape.org/namespaces/inkscape"
   aria-hidden="true"
   focusable="false"
   width="24"
   height="24"
   preserveAspectRatio="xMidYMid meet"
   viewBox="0 0 24 24"
   version="1.1"
   id="svg8"
   sodipodi:docname="memes.svg"
   inkscape:export-filename="C:\Users\rohan\workspace\Noku\NokuApp-cordova\www\img\memes.png"
   inkscape:export-xdpi="768"
   inkscape:export-ydpi="768"
   inkscape:version="0.92.4 (5da689c313, 2019-01-14)">
  <metadata
     id="metadata14">
    <rdf:RDF>
      <cc:Work
         rdf:about="">
        <dc:format>image/svg+xml</dc:format>
        <dc:type
           rdf:resource="http://purl.org/dc/dcmitype/StillImage" />
        <dc:title></dc:title>
      </cc:Work>
    </rdf:RDF>
  </metadata>
  <defs
     id="defs12" />
  <sodipodi:namedview
     pagecolor="#ffffff"
     bordercolor="#666666"
     borderopacity="1"
     objecttolerance="10000"
     gridtolerance="10000"
     guidetolerance="10000"
     inkscape:pageopacity="0"
     inkscape:pageshadow="2"
     inkscape:window-width="1920"
     inkscape:window-height="1001"
     id="namedview10"
     showgrid="true"
     inkscape:zoom="16"
     inkscape:cx="-8.0424458"
     inkscape:cy="17.051325"
     inkscape:window-x="-9"
     inkscape:window-y="-9"
     inkscape:window-maximized="1"
     inkscape:current-layer="svg8"
     inkscape:snap-perpendicular="true"
     inkscape:snap-tangential="true">
    <inkscape:grid
       type="xygrid"
       id="grid4595"
       empspacing="8"
       empcolor="#ff3f00"
       empopacity="0.25098039" />
  </sodipodi:namedview>
  <g
     id="g841"
     style="fill:#626262"
     transform="translate(3.998,4)">
    <path
       id="path835"
       d="m 12.002,4 h -10 a 1,1 0 0 0 -1,1 v 8 a 1,1 0 0 0 1,1 h 10 a 1,1 0 0 0 1,-1 V 5 a 1,1 0 0 0 -1,-1 z m -10,-1 a 2,2 0 0 0 -2,2 v 8 a 2,2 0 0 0 2,2 h 10 a 2,2 0 0 0 2,-2 V 5 a 2,2 0 0 0 -2,-2 z"
       inkscape:connector-curvature="0"
       style="fill-rule:evenodd" />
    <path
       id="path837"
       d="M 10.648,8.646 A 0.5,0.5 0 0 1 11.225,8.553 L 13.002,10.5 V 14 h -12 v -1 l 2.646,-2.354 a 0.5,0.5 0 0 1 0.63,-0.062 l 2.66,1.773 3.71,-3.71 z"
       inkscape:connector-curvature="0" />
    <path
       id="path839"
       d="m 4.502,9 a 1.5,1.5 0 1 0 0,-3 1.5,1.5 0 0 0 0,3 z M 4,2 h 10 a 1,1 0 0 1 1,1 v 8 a 1,1 0 0 1 -1,1 v 1 a 2,2 0 0 0 2,-2 V 3 A 2,2 0 0 0 14,1 H 4 A 2,2 0 0 0 2,3 H 3 A 1,1 0 0 1 4,2 Z"
       inkscape:connector-curvature="0"
       style="fill-rule:evenodd" />
  </g>
</svg>
