<?xml version="1.0" encoding="UTF-8" standalone="no"?>
<svg
   xmlns:dc="http://purl.org/dc/elements/1.1/"
   xmlns:cc="http://creativecommons.org/ns#"
   xmlns:rdf="http://www.w3.org/1999/02/22-rdf-syntax-ns#"
   xmlns:svg="http://www.w3.org/2000/svg"
   xmlns="http://www.w3.org/2000/svg"
   xmlns:sodipodi="http://sodipodi.sourceforge.net/DTD/sodipodi-0.dtd"
   xmlns:inkscape="http://www.inkscape.org/namespaces/inkscape"
   aria-hidden="true"
   focusable="false"
   width="24"
   height="24"
   preserveAspectRatio="xMidYMid meet"
   viewBox="0 0 24 24"
   version="1.1"
   id="svg8"
   sodipodi:docname="menu.svg"
   inkscape:export-filename="C:\Users\rohan\workspace\NokuApp-cordova\www\img\menu.png"
   inkscape:export-xdpi="768"
   inkscape:export-ydpi="768"
   inkscape:version="0.92.4 (5da689c313, 2019-01-14)">
  <metadata
     id="metadata14">
    <rdf:RDF>
      <cc:Work
         rdf:about="">
        <dc:format>image/svg+xml</dc:format>
        <dc:type
           rdf:resource="http://purl.org/dc/dcmitype/StillImage" />
        <dc:title></dc:title>
      </cc:Work>
    </rdf:RDF>
  </metadata>
  <defs
     id="defs12" />
  <sodipodi:namedview
     pagecolor="#ffffff"
     bordercolor="#666666"
     borderopacity="1"
     objecttolerance="10000"
     gridtolerance="10000"
     guidetolerance="10000"
     inkscape:pageopacity="0"
     inkscape:pageshadow="2"
     inkscape:window-width="1920"
     inkscape:window-height="1001"
     id="namedview10"
     showgrid="true"
     inkscape:zoom="17.294768"
     inkscape:cx="-0.19520409"
     inkscape:cy="9.0335313"
     inkscape:window-x="-9"
     inkscape:window-y="-9"
     inkscape:window-maximized="1"
     inkscape:current-layer="svg8"
     inkscape:snap-perpendicular="true"
     inkscape:snap-tangential="true">
    <inkscape:grid
       type="xygrid"
       id="grid4595"
       empspacing="8"
       empcolor="#ff3f00"
       empopacity="0.25098039" />
  </sodipodi:namedview>
  <g
     id="g4619"
     style="fill:#626262"
     transform="translate(4,4)">
    <path
       id="path4617"
       d="m 1,14 c 0,0 -1,0 -1,-1 0,-1 1,-4 6,-4 5,0 6,3 6,4 0,1 -1,1 -1,1 z M 6,8 A 3,3 0 1 0 6,2 3,3 0 0 0 6,8 Z m 7,1.5 A 0.5,0.5 0 0 1 13.5,9 h 2 a 0.5,0.5 0 0 1 0,1 h -2 A 0.5,0.5 0 0 1 13,9.5 Z m -2,-3 A 0.5,0.5 0 0 1 11.5,6 h 4 a 0.5,0.5 0 0 1 0,1 h -4 A 0.5,0.5 0 0 1 11,6.5 Z m 0,-3 A 0.5,0.5 0 0 1 11.5,3 h 4 a 0.5,0.5 0 0 1 0,1 h -4 A 0.5,0.5 0 0 1 11,3.5 Z m 2,9 A 0.5,0.5 0 0 1 13.5,12 h 2 a 0.5,0.5 0 0 1 0,1 h -2 A 0.5,0.5 0 0 1 13,12.5 Z"
       inkscape:connector-curvature="0"
       style="fill-rule:evenodd" />
  </g>
</svg>
