<?xml version="1.0" encoding="UTF-8" standalone="no"?>
<svg
   xmlns:dc="http://purl.org/dc/elements/1.1/"
   xmlns:cc="http://creativecommons.org/ns#"
   xmlns:rdf="http://www.w3.org/1999/02/22-rdf-syntax-ns#"
   xmlns:svg="http://www.w3.org/2000/svg"
   xmlns="http://www.w3.org/2000/svg"
   xmlns:sodipodi="http://sodipodi.sourceforge.net/DTD/sodipodi-0.dtd"
   xmlns:inkscape="http://www.inkscape.org/namespaces/inkscape"
   aria-hidden="true"
   focusable="false"
   width="24"
   height="24"
   preserveAspectRatio="xMidYMid meet"
   viewBox="0 0 24 24"
   version="1.1"
   id="svg8"
   sodipodi:docname="refresh.svg"
   inkscape:export-filename="C:\Users\rohan\workspace\Noku\NokuApp-cordova\www\img\refresh.png"
   inkscape:export-xdpi="768"
   inkscape:export-ydpi="768"
   inkscape:version="0.92.4 (5da689c313, 2019-01-14)">
  <metadata
     id="metadata14">
    <rdf:RDF>
      <cc:Work
         rdf:about="">
        <dc:format>image/svg+xml</dc:format>
        <dc:type
           rdf:resource="http://purl.org/dc/dcmitype/StillImage" />
        <dc:title />
      </cc:Work>
    </rdf:RDF>
  </metadata>
  <defs
     id="defs12" />
  <sodipodi:namedview
     pagecolor="#ffffff"
     bordercolor="#666666"
     borderopacity="1"
     objecttolerance="10000"
     gridtolerance="10000"
     guidetolerance="10000"
     inkscape:pageopacity="0"
     inkscape:pageshadow="2"
     inkscape:window-width="1920"
     inkscape:window-height="1001"
     id="namedview10"
     showgrid="true"
     inkscape:zoom="5.0696442"
     inkscape:cx="-25.212671"
     inkscape:cy="-1.3281248"
     inkscape:window-x="-9"
     inkscape:window-y="-9"
     inkscape:window-maximized="1"
     inkscape:current-layer="svg8"
     inkscape:snap-perpendicular="true"
     inkscape:snap-tangential="true">
    <inkscape:grid
       type="xygrid"
       id="grid4595"
       empspacing="8"
       empcolor="#ff3f00"
       empopacity="0.25098039" />
  </sodipodi:namedview>
  <g
     id="g4582"
     style="fill:#626262"
     transform="translate(4.0006316,3.9994851)">
    <path
       id="path4578"
       d="m 2.854,7.146 a 0.5,0.5 0 0 0 -0.708,0 l -2,2 A 0.5006316,0.5006316 0 1 0 0.854,9.854 L 2.5,8.207 4.146,9.854 A 0.5006316,0.5006316 0 0 0 4.854,9.146 Z m 13,-1 a 0.5,0.5 0 0 0 -0.708,0 L 13.5,7.793 11.854,6.146 a 0.5006316,0.5006316 0 0 0 -0.708,0.708 l 2,2 a 0.5,0.5 0 0 0 0.708,0 l 2,-2 a 0.5,0.5 0 0 0 0,-0.708 z"
       inkscape:connector-curvature="0"
       style="fill-rule:evenodd" />
    <path
       id="path4580"
       d="M 8,3 A 4.995,4.995 0 0 0 3.808,5.273 0.5,0.5 0 0 1 2.971,4.727 6,6 0 0 1 14,8 0.5005,0.5005 0 0 1 12.999,8 5,5 0 0 0 7.999,3 Z M 2.5,7.5 A 0.5,0.5 0 0 1 3,8 5,5 0 0 0 12.192,10.727 0.5,0.5 0 1 1 13.029,11.273 6,6 0 0 1 2,8 0.5,0.5 0 0 1 2.501,7.5 Z"
       inkscape:connector-curvature="0"
       style="fill-rule:evenodd" />
  </g>
</svg>
