<?xml version="1.0" encoding="UTF-8" standalone="no"?>
<svg
   xmlns:dc="http://purl.org/dc/elements/1.1/"
   xmlns:cc="http://creativecommons.org/ns#"
   xmlns:rdf="http://www.w3.org/1999/02/22-rdf-syntax-ns#"
   xmlns:svg="http://www.w3.org/2000/svg"
   xmlns="http://www.w3.org/2000/svg"
   xmlns:sodipodi="http://sodipodi.sourceforge.net/DTD/sodipodi-0.dtd"
   xmlns:inkscape="http://www.inkscape.org/namespaces/inkscape"
   aria-hidden="true"
   focusable="false"
   width="24"
   height="24"
   preserveAspectRatio="xMidYMid meet"
   viewBox="0 0 24 24"
   version="1.1"
   id="svg8"
   sodipodi:docname="repub.svg"
   inkscape:export-filename="C:\Users\rohan\workspace\Noku\NokuApp-cordova\www\img\repub.png"
   inkscape:export-xdpi="768"
   inkscape:export-ydpi="768"
   inkscape:version="0.92.4 (5da689c313, 2019-01-14)">
  <metadata
     id="metadata14">
    <rdf:RDF>
      <cc:Work
         rdf:about="">
        <dc:format>image/svg+xml</dc:format>
        <dc:type
           rdf:resource="http://purl.org/dc/dcmitype/StillImage" />
        <dc:title></dc:title>
      </cc:Work>
    </rdf:RDF>
  </metadata>
  <defs
     id="defs12" />
  <sodipodi:namedview
     pagecolor="#ffffff"
     bordercolor="#666666"
     borderopacity="1"
     objecttolerance="10000"
     gridtolerance="10000"
     guidetolerance="10000"
     inkscape:pageopacity="0"
     inkscape:pageshadow="2"
     inkscape:window-width="1920"
     inkscape:window-height="1001"
     id="namedview10"
     showgrid="true"
     inkscape:zoom="20.278577"
     inkscape:cx="9.5572176"
     inkscape:cy="7.2040691"
     inkscape:window-x="-9"
     inkscape:window-y="-9"
     inkscape:window-maximized="1"
     inkscape:current-layer="svg8"
     inkscape:snap-perpendicular="true"
     inkscape:snap-tangential="true">
    <inkscape:grid
       type="xygrid"
       id="grid4595"
       empspacing="8"
       empcolor="#ff3f00"
       empopacity="0.25098039" />
  </sodipodi:namedview>
  <g
     id="g821"
     style="fill:#626262"
     transform="matrix(1.0000177,0,0,1,4.0008584,3.4993684)">
    <path
       id="path815"
       d="m 10.146,7.646 a 0.5,0.5 0 0 1 0.708,0 l 3,3 a 0.5,0.5 0 0 1 0,0.708 l -3,3 A 0.5006316,0.5006316 0 0 1 10.146,13.646 L 12.793,11 10.146,8.354 a 0.5,0.5 0 0 1 0,-0.708 z"
       inkscape:connector-curvature="0"
       style="fill-rule:evenodd" />
    <path
       id="path817"
       d="M 2,11 A 0.5,0.5 0 0 1 2.5,10.5 H 13 a 0.5,0.5 0 0 1 0,1 H 2.5 A 0.5,0.5 0 0 1 2,11 Z M 5.854,1.646 a 0.5,0.5 0 0 1 0,0.708 L 3.207,5 5.854,7.646 A 0.5006316,0.5006316 0 1 1 5.146,8.354 l -3,-3 a 0.5,0.5 0 0 1 0,-0.708 l 3,-3 a 0.5,0.5 0 0 1 0.708,0 z"
       inkscape:connector-curvature="0"
       style="fill-rule:evenodd" />
    <path
       id="path819"
       d="M 2.5,5 A 0.5,0.5 0 0 1 3,4.5 h 10.5 a 0.5,0.5 0 0 1 0,1 H 3 A 0.5,0.5 0 0 1 2.5,5 Z"
       inkscape:connector-curvature="0"
       style="fill-rule:evenodd" />
  </g>
</svg>
