<?xml version="1.0" encoding="UTF-8" standalone="no"?>
<svg
   xmlns:dc="http://purl.org/dc/elements/1.1/"
   xmlns:cc="http://creativecommons.org/ns#"
   xmlns:rdf="http://www.w3.org/1999/02/22-rdf-syntax-ns#"
   xmlns:svg="http://www.w3.org/2000/svg"
   xmlns="http://www.w3.org/2000/svg"
   xmlns:sodipodi="http://sodipodi.sourceforge.net/DTD/sodipodi-0.dtd"
   xmlns:inkscape="http://www.inkscape.org/namespaces/inkscape"
   aria-hidden="true"
   focusable="false"
   width="24"
   height="24"
   preserveAspectRatio="xMidYMid meet"
   viewBox="0 0 24 24"
   version="1.1"
   id="svg8"
   sodipodi:docname="settings.svg"
   inkscape:export-filename="C:\Users\rohan\workspace\Noku\NokuApp-cordova\www\img\settings.png"
   inkscape:export-xdpi="768"
   inkscape:export-ydpi="768"
   inkscape:version="0.92.4 (5da689c313, 2019-01-14)">
  <metadata
     id="metadata14">
    <rdf:RDF>
      <cc:Work
         rdf:about="">
        <dc:format>image/svg+xml</dc:format>
        <dc:type
           rdf:resource="http://purl.org/dc/dcmitype/StillImage" />
        <dc:title></dc:title>
      </cc:Work>
    </rdf:RDF>
  </metadata>
  <defs
     id="defs12" />
  <sodipodi:namedview
     pagecolor="#ffffff"
     bordercolor="#666666"
     borderopacity="1"
     objecttolerance="10000"
     gridtolerance="10000"
     guidetolerance="10000"
     inkscape:pageopacity="0"
     inkscape:pageshadow="2"
     inkscape:window-width="1920"
     inkscape:window-height="1001"
     id="namedview10"
     showgrid="true"
     inkscape:zoom="16.813"
     inkscape:cx="-3.9020178"
     inkscape:cy="2.6933652"
     inkscape:window-x="-9"
     inkscape:window-y="-9"
     inkscape:window-maximized="1"
     inkscape:current-layer="svg8"
     inkscape:snap-perpendicular="true"
     inkscape:snap-tangential="true">
    <inkscape:grid
       type="xygrid"
       id="grid4595"
       empspacing="8"
       empcolor="#ff3f00"
       empopacity="0.25098039" />
  </sodipodi:namedview>
  <g
     id="g819"
     style="fill:#626262"
     transform="translate(3.9995,4.0005)">
    <path
       id="path815"
       d="M 8.837,1.626 C 8.591,0.791 7.409,0.791 7.163,1.626 L 7.069,1.945 A 1.873,1.873 0 0 1 4.377,3.06 L 4.085,2.9 C 3.321,2.485 2.485,3.32 2.901,4.085 L 3.06,4.377 A 1.873,1.873 0 0 1 1.945,7.069 L 1.626,7.163 c -0.835,0.246 -0.835,1.428 0,1.674 L 1.945,8.931 A 1.873,1.873 0 0 1 3.06,11.624 L 2.9,11.915 c -0.415,0.764 0.42,1.6 1.185,1.184 L 4.377,12.94 a 1.873,1.873 0 0 1 2.692,1.116 l 0.094,0.318 c 0.246,0.835 1.428,0.835 1.674,0 l 0.094,-0.319 a 1.873,1.873 0 0 1 2.693,-1.115 l 0.291,0.16 c 0.764,0.415 1.6,-0.42 1.184,-1.185 L 12.94,11.624 a 1.873,1.873 0 0 1 1.116,-2.693 l 0.318,-0.094 c 0.835,-0.246 0.835,-1.428 0,-1.674 L 14.055,7.069 A 1.873,1.873 0 0 1 12.94,4.377 L 13.1,4.085 C 13.515,3.321 12.68,2.485 11.915,2.901 L 11.624,3.06 A 1.873,1.873 0 0 1 8.93,1.945 L 8.836,1.626 Z M 6.204,1.343 c 0.527,-1.79 3.065,-1.79 3.592,0 L 9.89,1.662 a 0.873,0.873 0 0 0 1.255,0.52 l 0.292,-0.16 c 1.64,-0.892 3.434,0.901 2.54,2.541 l -0.159,0.292 a 0.873,0.873 0 0 0 0.52,1.255 l 0.319,0.094 c 1.79,0.527 1.79,3.065 0,3.592 L 14.338,9.89 a 0.873,0.873 0 0 0 -0.52,1.255 l 0.16,0.292 c 0.893,1.64 -0.902,3.434 -2.541,2.54 l -0.292,-0.159 a 0.873,0.873 0 0 0 -1.255,0.52 l -0.094,0.319 c -0.527,1.79 -3.065,1.79 -3.592,0 L 6.11,14.338 a 0.873,0.873 0 0 0 -1.255,-0.52 l -0.292,0.16 C 2.923,14.871 1.13,13.076 2.023,11.437 L 2.182,11.145 A 0.873,0.873 0 0 0 1.662,9.89 L 1.343,9.796 c -1.79,-0.527 -1.79,-3.065 0,-3.592 L 1.662,6.11 A 0.873,0.873 0 0 0 2.182,4.855 L 2.022,4.563 C 1.13,2.923 2.924,1.13 4.563,2.023 L 4.855,2.182 A 0.873,0.873 0 0 0 6.11,1.662 Z"
       inkscape:connector-curvature="0"
       style="fill-rule:evenodd" />
    <path
       id="path817"
       d="M 8,5.754 A 2.246,2.246 0 1 0 8,10.246 2.246,2.246 0 0 0 8,5.754 Z M 4.754,8 a 3.246,3.246 0 1 1 6.492,0 3.246,3.246 0 0 1 -6.492,0 z"
       inkscape:connector-curvature="0"
       style="fill-rule:evenodd" />
  </g>
</svg>
