<?xml version="1.0" encoding="UTF-8" standalone="no"?>
<svg
   xmlns:dc="http://purl.org/dc/elements/1.1/"
   xmlns:cc="http://creativecommons.org/ns#"
   xmlns:rdf="http://www.w3.org/1999/02/22-rdf-syntax-ns#"
   xmlns:svg="http://www.w3.org/2000/svg"
   xmlns="http://www.w3.org/2000/svg"
   xmlns:sodipodi="http://sodipodi.sourceforge.net/DTD/sodipodi-0.dtd"
   xmlns:inkscape="http://www.inkscape.org/namespaces/inkscape"
   aria-hidden="true"
   focusable="false"
   width="24"
   height="24"
   preserveAspectRatio="xMidYMid meet"
   viewBox="0 0 24 24"
   version="1.1"
   id="svg8"
   sodipodi:docname="share.svg"
   inkscape:export-filename="C:\Users\rohan\workspace\NokuApp-cordova\www\img\share.png"
   inkscape:export-xdpi="768"
   inkscape:export-ydpi="768"
   inkscape:version="0.92.4 (5da689c313, 2019-01-14)">
  <metadata
     id="metadata14">
    <rdf:RDF>
      <cc:Work
         rdf:about="">
        <dc:format>image/svg+xml</dc:format>
        <dc:type
           rdf:resource="http://purl.org/dc/dcmitype/StillImage" />
        <dc:title></dc:title>
      </cc:Work>
    </rdf:RDF>
  </metadata>
  <defs
     id="defs12" />
  <sodipodi:namedview
     pagecolor="#ffffff"
     bordercolor="#666666"
     borderopacity="1"
     objecttolerance="10000"
     gridtolerance="10000"
     guidetolerance="10000"
     inkscape:pageopacity="0"
     inkscape:pageshadow="2"
     inkscape:window-width="1920"
     inkscape:window-height="1001"
     id="namedview10"
     showgrid="true"
     inkscape:zoom="20.278577"
     inkscape:cx="18.5521"
     inkscape:cy="13.058816"
     inkscape:window-x="-9"
     inkscape:window-y="-9"
     inkscape:window-maximized="1"
     inkscape:current-layer="svg8"
     inkscape:snap-perpendicular="true"
     inkscape:snap-tangential="true">
    <inkscape:grid
       type="xygrid"
       id="grid4595"
       empspacing="8"
       empcolor="#ff3f00"
       empopacity="0.25098039" />
  </sodipodi:namedview>
  <g
     id="g868"
     style="fill:#626262"
     transform="translate(4,4)">
    <path
       id="path864"
       d="m 11.724,3.947 -7,3.5 -0.448,-0.894 7,-3.5 z m -0.448,9 -7,-3.5 0.448,-0.894 7,3.5 z"
       inkscape:connector-curvature="0"
       style="fill-rule:evenodd" />
    <path
       id="path866"
       d="m 13.5,4 a 1.5,1.5 0 1 0 0,-3 1.5,1.5 0 0 0 0,3 z m 0,1 a 2.5,2.5 0 1 0 0,-5 2.5,2.5 0 0 0 0,5 z m 0,10 a 1.5,1.5 0 1 0 0,-3 1.5,1.5 0 0 0 0,3 z m 0,1 a 2.5,2.5 0 1 0 0,-5 2.5,2.5 0 0 0 0,5 z M 2.5,9.5 a 1.5,1.5 0 1 0 0,-3 1.5,1.5 0 0 0 0,3 z m 0,1 a 2.5,2.5 0 1 0 0,-5 2.5,2.5 0 0 0 0,5 z"
       inkscape:connector-curvature="0"
       style="fill-rule:evenodd" />
  </g>
</svg>
