<?xml version="1.0" encoding="UTF-8" standalone="no"?>
<svg
   xmlns:dc="http://purl.org/dc/elements/1.1/"
   xmlns:cc="http://creativecommons.org/ns#"
   xmlns:rdf="http://www.w3.org/1999/02/22-rdf-syntax-ns#"
   xmlns:svg="http://www.w3.org/2000/svg"
   xmlns="http://www.w3.org/2000/svg"
   xmlns:sodipodi="http://sodipodi.sourceforge.net/DTD/sodipodi-0.dtd"
   xmlns:inkscape="http://www.inkscape.org/namespaces/inkscape"
   aria-hidden="true"
   focusable="false"
   width="24"
   height="24"
   preserveAspectRatio="xMidYMid meet"
   viewBox="0 0 24 24"
   version="1.1"
   id="svg8"
   sodipodi:docname="upload.svg"
   inkscape:export-filename="C:\Users\rohan\workspace\Noku\NokuApp-cordova\www\img\upload.png"
   inkscape:export-xdpi="768"
   inkscape:export-ydpi="768"
   inkscape:version="0.92.4 (5da689c313, 2019-01-14)">
  <metadata
     id="metadata14">
    <rdf:RDF>
      <cc:Work
         rdf:about="">
        <dc:format>image/svg+xml</dc:format>
        <dc:type
           rdf:resource="http://purl.org/dc/dcmitype/StillImage" />
        <dc:title />
      </cc:Work>
    </rdf:RDF>
  </metadata>
  <defs
     id="defs12" />
  <sodipodi:namedview
     pagecolor="#ffffff"
     bordercolor="#666666"
     borderopacity="1"
     objecttolerance="10000"
     gridtolerance="10000"
     guidetolerance="10000"
     inkscape:pageopacity="0"
     inkscape:pageshadow="2"
     inkscape:window-width="1920"
     inkscape:window-height="1001"
     id="namedview10"
     showgrid="true"
     inkscape:zoom="18.760427"
     inkscape:cx="20.479001"
     inkscape:cy="16.296011"
     inkscape:window-x="-9"
     inkscape:window-y="-9"
     inkscape:window-maximized="1"
     inkscape:current-layer="svg8"
     inkscape:snap-perpendicular="true"
     inkscape:snap-tangential="true">
    <inkscape:grid
       type="xygrid"
       id="grid4595"
       empspacing="8"
       empcolor="#ff3f00"
       empopacity="0.25098039" />
  </sodipodi:namedview>
  <g
     id="g823"
     style="fill:#626262"
     transform="translate(4,5)">
    <path
       id="path819"
       d="M 0.5,8 A 0.5,0.5 0 0 1 1,8.5 V 12 a 1,1 0 0 0 1,1 h 12 a 1,1 0 0 0 1,-1 V 8.5 a 0.5,0.5 0 0 1 1,0 V 12 a 2,2 0 0 1 -2,2 H 2 A 2,2 0 0 1 0,12 V 8.5 A 0.5,0.5 0 0 1 0.5,8 Z M 5,4.854 a 0.5,0.5 0 0 0 0.707,0 L 8,2.56 10.293,4.853 A 0.5,0.5 0 1 0 11,4.146 L 8.354,1.5 a 0.5,0.5 0 0 0 -0.708,0 L 5,4.146 a 0.5,0.5 0 0 0 0,0.708 z"
       inkscape:connector-curvature="0"
       style="fill-rule:evenodd" />
    <path
       id="path821"
       d="m 8,2 a 0.5,0.5 0 0 1 0.5,0.5 v 8 a 0.5,0.5 0 0 1 -1,0 v -8 A 0.5,0.5 0 0 1 8,2 Z"
       inkscape:connector-curvature="0"
       style="fill-rule:evenodd" />
  </g>
</svg>
