<?xml version="1.0" encoding="UTF-8" standalone="no"?>
<svg
   xmlns:dc="http://purl.org/dc/elements/1.1/"
   xmlns:cc="http://creativecommons.org/ns#"
   xmlns:rdf="http://www.w3.org/1999/02/22-rdf-syntax-ns#"
   xmlns:svg="http://www.w3.org/2000/svg"
   xmlns="http://www.w3.org/2000/svg"
   xmlns:sodipodi="http://sodipodi.sourceforge.net/DTD/sodipodi-0.dtd"
   xmlns:inkscape="http://www.inkscape.org/namespaces/inkscape"
   aria-hidden="true"
   focusable="false"
   width="24"
   height="24"
   preserveAspectRatio="xMidYMid meet"
   viewBox="0 0 24 24"
   version="1.1"
   id="svg8"
   sodipodi:docname="upload.svg"
   inkscape:export-filename="C:\Users\rohan\workspace\Noku\NokuApp-cordova\www\img\upload.png"
   inkscape:export-xdpi="768"
   inkscape:export-ydpi="768"
   inkscape:version="0.92.4 (5da689c313, 2019-01-14)">
  <metadata
     id="metadata14">
    <rdf:RDF>
      <cc:Work
         rdf:about="">
        <dc:format>image/svg+xml</dc:format>
        <dc:type
           rdf:resource="http://purl.org/dc/dcmitype/StillImage" />
        <dc:title></dc:title>
      </cc:Work>
    </rdf:RDF>
  </metadata>
  <defs
     id="defs12" />
  <sodipodi:namedview
     pagecolor="#ffffff"
     bordercolor="#666666"
     borderopacity="1"
     objecttolerance="10000"
     gridtolerance="10000"
     guidetolerance="10000"
     inkscape:pageopacity="0"
     inkscape:pageshadow="2"
     inkscape:window-width="1920"
     inkscape:window-height="1001"
     id="namedview10"
     showgrid="true"
     inkscape:zoom="16"
     inkscape:cx="-8.0424458"
     inkscape:cy="17.051325"
     inkscape:window-x="-9"
     inkscape:window-y="-9"
     inkscape:window-maximized="1"
     inkscape:current-layer="svg8"
     inkscape:snap-perpendicular="true"
     inkscape:snap-tangential="true">
    <inkscape:grid
       type="xygrid"
       id="grid4595"
       empspacing="8"
       empcolor="#ff3f00"
       empopacity="0.25098039" />
  </sodipodi:namedview>
  <g
     id="g821"
     style="fill:#626262"
     transform="translate(4.5,4)">
    <path
       id="path815"
       d="m 4.646,4.354 a 0.5,0.5 0 0 0 0.708,0 L 8,1.707 10.646,4.354 a 0.5006316,0.5006316 0 0 0 0.708,-0.708 l -3,-3 a 0.5,0.5 0 0 0 -0.708,0 l -3,3 a 0.5,0.5 0 0 0 0,0.708 z"
       inkscape:connector-curvature="0"
       style="fill-rule:evenodd" />
    <path
       id="path817"
       d="M 8,11.5 A 0.5,0.5 0 0 0 8.5,11 V 2 a 0.5,0.5 0 0 0 -1,0 v 9 A 0.5,0.5 0 0 0 8,11.5 Z"
       inkscape:connector-curvature="0"
       style="fill-rule:evenodd" />
    <path
       id="path819"
       d="M 2.5,14 A 1.5,1.5 0 0 0 4,15.5 h 8 A 1.5,1.5 0 0 0 13.5,14 V 7 A 1.5,1.5 0 0 0 12,5.5 h -1.5 a 0.5,0.5 0 0 0 0,1 H 12 A 0.5,0.5 0 0 1 12.5,7 v 7 A 0.5,0.5 0 0 1 12,14.5 H 4 A 0.5,0.5 0 0 1 3.5,14 V 7 A 0.5,0.5 0 0 1 4,6.5 h 1.5 a 0.5,0.5 0 0 0 0,-1 H 4 A 1.5,1.5 0 0 0 2.5,7 Z"
       inkscape:connector-curvature="0"
       style="fill-rule:evenodd" />
  </g>
</svg>
