<?xml version="1.0" encoding="UTF-8" standalone="no"?>
<svg
   xmlns:dc="http://purl.org/dc/elements/1.1/"
   xmlns:cc="http://creativecommons.org/ns#"
   xmlns:rdf="http://www.w3.org/1999/02/22-rdf-syntax-ns#"
   xmlns:svg="http://www.w3.org/2000/svg"
   xmlns="http://www.w3.org/2000/svg"
   xmlns:sodipodi="http://sodipodi.sourceforge.net/DTD/sodipodi-0.dtd"
   xmlns:inkscape="http://www.inkscape.org/namespaces/inkscape"
   aria-hidden="true"
   focusable="false"
   width="24"
   height="24"
   preserveAspectRatio="xMidYMid meet"
   viewBox="0 0 24 24"
   version="1.1"
   id="svg8"
   sodipodi:docname="video.svg"
   inkscape:export-filename="C:\Users\rohan\workspace\Noku\NokuApp-cordova\www\img\video.png"
   inkscape:export-xdpi="768"
   inkscape:export-ydpi="768"
   inkscape:version="0.92.4 (5da689c313, 2019-01-14)">
  <metadata
     id="metadata14">
    <rdf:RDF>
      <cc:Work
         rdf:about="">
        <dc:format>image/svg+xml</dc:format>
        <dc:type
           rdf:resource="http://purl.org/dc/dcmitype/StillImage" />
        <dc:title></dc:title>
      </cc:Work>
    </rdf:RDF>
  </metadata>
  <defs
     id="defs12" />
  <sodipodi:namedview
     pagecolor="#ffffff"
     bordercolor="#666666"
     borderopacity="1"
     objecttolerance="10000"
     gridtolerance="10000"
     guidetolerance="10000"
     inkscape:pageopacity="0"
     inkscape:pageshadow="2"
     inkscape:window-width="958"
     inkscape:window-height="991"
     id="namedview10"
     showgrid="true"
     inkscape:zoom="17.926261"
     inkscape:cx="11.990277"
     inkscape:cy="9.438455"
     inkscape:window-x="-8"
     inkscape:window-y="0"
     inkscape:window-maximized="0"
     inkscape:current-layer="svg8"
     inkscape:snap-perpendicular="true"
     inkscape:snap-tangential="true">
    <inkscape:grid
       type="xygrid"
       id="grid4595"
       empspacing="8"
       empcolor="#ff3f00"
       empopacity="0.25098039" />
  </sodipodi:namedview>
  <g
     id="g853"
     style="fill:#626262"
     transform="translate(3.5,4.5)">
    <path
       id="path849"
       d="M 2.667,3.5 C 2.022,3.5 1.5,4.022 1.5,4.667 v 6.666 c 0,0.645 0.522,1.167 1.167,1.167 h 6.666 c 0.645,0 1.167,-0.522 1.167,-1.167 V 4.667 C 10.5,4.022 9.978,3.5 9.333,3.5 Z M 0.5,4.667 C 0.5,3.47 1.47,2.5 2.667,2.5 h 6.666 c 1.197,0 2.167,0.97 2.167,2.167 v 6.666 C 11.5,12.53 10.53,13.5 9.333,13.5 H 2.667 A 2.167,2.167 0 0 1 0.5,11.333 Z"
       inkscape:connector-curvature="0"
       style="fill-rule:evenodd" />
    <path
       id="path851"
       d="M 11.25,5.65 14.018,4.045 A 0.318,0.318 0 0 1 14.5,4.308 v 7.384 c 0,0.228 -0.26,0.393 -0.482,0.264 l -2.767,-1.605 -0.502,0.865 2.767,1.605 C 14.375,13.319 15.5,12.726 15.5,11.692 V 4.308 C 15.5,3.275 14.375,2.682 13.516,3.18 L 10.75,4.785 11.252,5.65 Z"
       inkscape:connector-curvature="0"
       style="fill-rule:evenodd" />
  </g>
</svg>
